<svg height="500" width="500" xmlns="http://www.w3.org/2000/svg"><path d="M50 0C22.3 0 0 22.3 0 50v400c0 27.7 22.3 50 50 50h400c27.7 0 50-22.3 50-50V50c0-27.7-22.3-50-50-50H50zm40.125 56.125h184.313c42.832 0 74.054 10.533 93.687 31.563 19.63 21.03 29.438 37.36 29.438 64.374 0 19.678-5.694 37.519-17.094 53.438-11.406 15.919-28.421 22.485-51.031 28.469 52.547 12.348 90.093 46.593 90.093 95.594 0 29.329-9.272 55.477-27.812 78.53-18.543 23.054-47.537 43.063-108.219 43.063H90.125V56.125zm102.5 78.125v73.25h48.156c14.473-.001 24.735-3.58 30.688-10.719 5.946-7.135 8.906-22.367 8.906-30.469 0-21.992-13.896-32.062-41.656-32.062h-46.094zm-.563 157.156v71.781h60.688c15.067 0 26.144-3.602 33.188-10.843 7.035-7.237 10.53-15.397 10.53-24.469 0-9.07-3.412-17.41-10.25-25.031-6.841-7.618-19.383-11.438-37.624-11.438h-56.531z"/></svg>